<svg xmlns="http://www.w3.org/2000/svg" xmlns:xlink="http://www.w3.org/1999/xlink" viewBox="0 0 93.9 58.98"><defs><style>.cls-1{fill:#252a3a;}.cls-2{fill:#263740;}</style><symbol id="New_Symbol_2" data-name="New Symbol 2" viewBox="0 0 6 6"><circle class="cls-1" cx="3" cy="3" r="3"/></symbol></defs><title>Asset 14</title><g id="Layer_2" data-name="Layer 2"><g id="Layer_1-2" data-name="Layer 1"><use width="6" height="6" transform="translate(45.98 56.82) rotate(146.52)" xlink:href="#New_Symbol_2"/><use width="6" height="6" transform="translate(52.72 20.52) rotate(146.52)" xlink:href="#New_Symbol_2"/><use width="6" height="6" transform="translate(30.77 35.19) rotate(146.52)" xlink:href="#New_Symbol_2"/><use width="6" height="6" transform="translate(67.44 41.55) rotate(146.52)" xlink:href="#New_Symbol_2"/><use width="6" height="6" transform="translate(56.78 3.85) rotate(146.52)" xlink:href="#New_Symbol_2"/><use width="6" height="6" transform="translate(34.33 18.49) rotate(146.52)" xlink:href="#New_Symbol_2"/><use width="6" height="6" transform="translate(71.12 25.72) rotate(146.52)" xlink:href="#New_Symbol_2"/><path class="cls-2" d="M63.15,18l0-.2H63L52.53,2,29.76,17l.41.63-.73-.16-.1.46-1.23.11.11,1,.9-.09L25.88,34.19l.53.11-.47.34L42.48,57.3,64,41.61l.12,0,0-.13,1-.74-.65-.89.17-.75,1.83-.19-.11-1-1.49.15L67.76,25Zm-32.46.79,2.49-.19-.07-1-1.76.14L51.57,4.39,49,17.16h-.83v1h.39l-21,15.3Zm18.08-.66,0,.14-.11-.14ZM28,35,48.27,20.2l.06.09-.2,1,1.1.23L61.54,38.39h-.13l.07,1,.75-.07.64.88-.09.41-20,14.58Zm35.25,3.27L49.94,19.94l.35-1.75c1,0,1.91,0,2.84,0l0-1-2.66,0L52.92,5.28l8.2,12.39c-1-.08-2-.14-2.95-.2l-.06,1c1.25.07,2.48.16,3.71.26l4.34,6.56-2.85,13Z"/><path class="cls-2" d="M23.13,18.66c-1.71.24-3.38.51-5,.8l.18,1c1.57-.29,3.22-.55,4.92-.78Z"/><path class="cls-2" d="M21.45,38.18c1.61.24,3.28.47,5,.66l.11-1c-1.68-.2-3.35-.42-4.94-.66Z"/><path class="cls-2" d="M38.12,17.34l0,1c1.64-.08,3.3-.13,5-.16l0-1C41.43,17.21,39.76,17.27,38.12,17.34Z"/><path class="cls-2" d="M3.72,23.89C1.67,25,.41,26.27,0,27.58l1,.3c.34-1.05,1.43-2.1,3.26-3.12Z"/><path class="cls-2" d="M2.25,32.27a20.39,20.39,0,0,0,4.54,2.35l.36-.93a19.61,19.61,0,0,1-4.31-2.23Z"/><path class="cls-2" d="M13.25,20.5c-1.77.43-3.4.89-4.85,1.39l.32.94c1.42-.48,3-.94,4.76-1.36Z"/><path class="cls-2" d="M11.6,36.17c1.51.41,3.16.79,4.9,1.14l.2-1C15,36,13.35,35.6,11.86,35.2Z"/><path class="cls-2" d="M92.19,25.38a16.08,16.08,0,0,0-4.44-2.59l-.38.92a15.25,15.25,0,0,1,4.16,2.42Z"/><path class="cls-2" d="M81.08,35.42l.25,1c1.78-.46,3.4-1,4.83-1.47L85.82,34C84.42,34.49,82.83,35,81.08,35.42Z"/><path class="cls-2" d="M73.13,19c-1.58-.25-3.26-.49-5-.69l-.12,1c1.7.2,3.36.43,4.94.69Z"/><path class="cls-2" d="M83,21.15c-1.49-.43-3.14-.83-4.89-1.2l-.21,1c1.73.36,3.36.76,4.83,1.18Z"/><path class="cls-2" d="M92.9,28.54c0,1.13-.89,2.26-2.66,3.37l.54.85c2.07-1.31,3.12-2.73,3.12-4.22Z"/><path class="cls-2" d="M71.32,37.31l.14,1c1.71-.24,3.38-.52,5-.83l-.19-1C74.67,36.79,73,37.07,71.32,37.31Z"/><path class="cls-2" d="M31.42,39.33c1.63.13,3.32.25,5,.34l0-1c-1.68-.09-3.35-.2-5-.34Z"/><path class="cls-2" d="M51.44,38.89l0,1q2.55-.06,5-.18l0-1C54.8,38.79,53.13,38.85,51.44,38.89Z"/><path class="cls-2" d="M41.44,39.87c1.65,0,3.32.07,5,.07v-1c-1.69,0-3.35,0-5-.07Z"/></g></g></svg>