<svg xmlns="http://www.w3.org/2000/svg" xmlns:xlink="http://www.w3.org/1999/xlink" viewBox="0 0 52.12 52.62"><defs><style>.cls-1{fill:#252a3a;}.cls-2{fill:#263740;}</style><symbol id="New_Symbol_2" data-name="New Symbol 2" viewBox="0 0 6 6"><circle class="cls-1" cx="3" cy="3" r="3"/></symbol></defs><title>Asset 5</title><g id="Layer_2" data-name="Layer 2"><g id="Layer_1-2" data-name="Layer 1"><rect class="cls-2" x="33.88" y="17.06" width="5" height="1.5" transform="translate(-0.13 0.26) rotate(-0.41)"/><rect class="cls-2" x="23.88" y="17.13" width="5" height="1.5" transform="translate(-0.13 0.19) rotate(-0.41)"/><polygon class="cls-2" points="17.8 17.2 4.57 3.97 4.94 3.97 4.93 2.47 2.51 2.49 2.54 6.57 4.04 6.56 4.03 5.55 16.47 17.99 16.47 21.28 17.97 21.28 17.97 18.69 18.89 18.69 18.88 17.19 17.8 17.2"/><rect class="cls-2" x="16.47" y="26.28" width="1.5" height="5"/><rect class="cls-2" x="16.47" y="36.28" width="1.5" height="5"/><rect class="cls-2" x="48.13" y="28.34" width="1.5" height="5"/><rect class="cls-2" x="48.13" y="38.34" width="1.5" height="5"/><rect class="cls-2" x="43.27" y="10.35" width="1.5" height="5" transform="translate(3.81 34.89) rotate(-45)"/><polygon class="cls-2" points="48.13 48.64 43.55 48.67 43.56 50.17 48.56 50.14 48.55 49.05 49.63 49.05 49.63 48.34 48.13 48.34 48.13 48.64"/><polygon class="cls-2" points="48.89 18.34 48.88 16.97 43.88 17 43.89 18.5 48.13 18.47 48.13 23.34 49.63 23.34 49.63 18.34 48.89 18.34"/><rect class="cls-2" x="36.2" y="3.28" width="1.5" height="5" transform="translate(6.74 27.82) rotate(-45)"/><rect class="cls-2" x="8.57" y="39.13" width="1.5" height="5" transform="translate(-26.9 19.09) rotate(-45.49)"/><rect class="cls-2" x="2.59" y="11.57" width="1.5" height="5" transform="translate(-0.09 0.02) rotate(-0.37)"/><rect class="cls-2" x="9.93" y="2.42" width="5" height="1.5" transform="translate(-0.02 0.09) rotate(-0.41)"/><rect class="cls-2" x="2.67" y="21.57" width="1.5" height="5" transform="translate(-0.16 0.02) rotate(-0.37)"/><polygon class="cls-2" points="4.22 31.56 2.72 31.57 2.75 36.22 3.45 36.9 4.5 35.83 4.25 35.58 4.22 31.56"/><rect class="cls-2" x="33.55" y="48.73" width="5" height="1.5" transform="translate(-0.35 0.26) rotate(-0.41)"/><rect class="cls-2" x="29.93" y="2.27" width="5" height="1.5" transform="translate(-0.02 0.24) rotate(-0.43)"/><rect class="cls-2" x="23.55" y="48.8" width="5" height="1.5" transform="translate(-0.35 0.19) rotate(-0.41)"/><polygon class="cls-2" points="17.97 48.86 17.97 46.28 16.47 46.28 16.47 47.6 15.2 46.35 14.14 47.42 17.14 50.37 18.56 50.36 18.55 48.86 17.97 48.86"/><rect class="cls-2" x="19.93" y="2.34" width="5" height="1.5" transform="translate(-0.02 0.17) rotate(-0.43)"/><use width="6" height="6" transform="translate(20.19 14.93) rotate(89.58)" xlink:href="#New_Symbol_2"/><use width="6" height="6" transform="translate(20.43 46.59) rotate(89.58)" xlink:href="#New_Symbol_2"/><use width="6" height="6" transform="translate(51.86 14.69) rotate(89.58)" xlink:href="#New_Symbol_2"/><use width="6" height="6" transform="translate(52.09 46.36) rotate(89.58)" xlink:href="#New_Symbol_2"/><use id="New_Symbol_2-11" data-name="New Symbol 2" width="6" height="6" transform="translate(6.49 0.95) rotate(89.58)" xlink:href="#New_Symbol_2"/><use width="6" height="6" transform="translate(5.98 32.88) rotate(89.58)" xlink:href="#New_Symbol_2"/><use id="New_Symbol_2-16" data-name="New Symbol 2" width="6" height="6" transform="translate(36.91 -0.02) rotate(89.58)" xlink:href="#New_Symbol_2"/></g></g></svg>