<svg xmlns="http://www.w3.org/2000/svg" xmlns:xlink="http://www.w3.org/1999/xlink" viewBox="0 0 77.55 52.14"><defs><style>.cls-1{fill:#252a3a;}.cls-2{fill:#263740;}</style><symbol id="New_Symbol_2" data-name="New Symbol 2" viewBox="0 0 6 6"><circle class="cls-1" cx="3" cy="3" r="3"/></symbol></defs><title>Asset 7</title><g id="Layer_2" data-name="Layer 2"><g id="Layer_1-2" data-name="Layer 1"><path class="cls-2" d="M76.32,26.88,52.63,3.19l-13.5,13.5L25.63,3.19,1.94,26.88,25.63,50.57l13.5-13.5,13.5,13.5ZM25.63,48.44,4.06,26.88,25.63,5.31,38.07,17.75l-9.13,9.13L38.07,36Zm13.5-29.63,8.06,8.07-8.06,8.06-8.07-8.06Zm10.19,8.07-9.13-9.13L52.63,5.31,74.19,26.88,52.63,48.44,40.19,36Z"/><use width="6" height="6" transform="translate(29.81 49.1) rotate(134.58)" xlink:href="#New_Symbol_2"/><use width="6" height="6" transform="translate(7.24 26.14) rotate(134.58)" xlink:href="#New_Symbol_2"/><use width="6" height="6" transform="translate(51.79 26.85) rotate(134.58)" xlink:href="#New_Symbol_2"/><use width="6" height="6" transform="translate(29.87 2.97) rotate(134.58)" xlink:href="#New_Symbol_2"/><use width="6" height="6" transform="translate(56.81 49.1) rotate(134.58)" xlink:href="#New_Symbol_2"/><use width="6" height="6" transform="translate(34.24 26.14) rotate(134.58)" xlink:href="#New_Symbol_2"/><use width="6" height="6" transform="translate(78.79 26.85) rotate(134.58)" xlink:href="#New_Symbol_2"/><use width="6" height="6" transform="translate(56.87 3.22) rotate(134.58)" xlink:href="#New_Symbol_2"/></g></g></svg>