<svg xmlns="http://www.w3.org/2000/svg" xmlns:xlink="http://www.w3.org/1999/xlink" viewBox="0 0 49.24 66.61"><defs><style>.cls-1{fill:#252a3a;}.cls-2{fill:#263740;}</style><symbol id="New_Symbol_2" data-name="New Symbol 2" viewBox="0 0 6 6"><circle class="cls-1" cx="3" cy="3" r="3"/></symbol></defs><title>Asset 12</title><g id="Layer_2" data-name="Layer 2"><g id="Layer_1-2" data-name="Layer 1"><rect class="cls-2" x="24.29" y="42.13" width="1.5" height="5"/><rect class="cls-2" x="24.29" y="62.13" width="1.5" height="1.48"/><rect class="cls-2" x="24.29" y="52.13" width="1.5" height="5"/><rect class="cls-2" x="2.09" y="18.9" width="1.5" height="5"/><rect class="cls-2" x="2.09" y="28.9" width="1.5" height="3.23"/><rect class="cls-2" x="45.49" y="36.39" width="1.5" height="4.04"/><rect class="cls-2" x="45.49" y="26.39" width="1.5" height="5"/><path class="cls-2" d="M48.53,17.14,25,0,1.57,17.14,24.29,33.73v3.4h1.5v-3.4l19.7-14.38v2H47V18.26Zm-23.09,15h-.79l-3.53-2.58L38.3,16.28l-.92-1.19L19.85,28.63l-4-3L28,16.28l-.92-1.19L14.54,24.75l-4.13-3,5.19-4-.92-1.19L9.15,20.82l-5-3.68L25,1.86,45.49,16.78v.71Z"/><use width="6" height="6" transform="translate(28.02 60.59) rotate(89.58)" xlink:href="#New_Symbol_2"/><use width="6" height="6" transform="translate(5.98 31.72) rotate(89.58)" xlink:href="#New_Symbol_2"/><use width="6" height="6" transform="translate(49.22 42.32) rotate(89.58)" xlink:href="#New_Symbol_2"/></g></g></svg>