<svg xmlns="http://www.w3.org/2000/svg" xmlns:xlink="http://www.w3.org/1999/xlink" viewBox="0 0 59.01 94.63"><defs><style>.cls-1{fill:#252a3a;}.cls-2{fill:#263740;}</style><symbol id="New_Symbol_2" data-name="New Symbol 2" viewBox="0 0 6 6"><circle class="cls-1" cx="3" cy="3" r="3"/></symbol></defs><title>Asset 8</title><g id="Layer_2" data-name="Layer 2"><g id="Layer_1-2" data-name="Layer 1"><path class="cls-2" d="M24.42,82.88,4.87,56.09,31.66,36.54,51.21,63.32ZM7,56.42,24.75,80.78,49.11,63,31.33,38.63Z"/><rect class="cls-2" x="23.04" y="28.6" width="22.39" height="1.5" transform="translate(-1.36 57.04) rotate(-78.48)"/><polygon class="cls-2" points="50.03 64.36 48.57 64.04 52.79 44.87 35.91 19.35 10.13 36.41 9.3 35.16 36.34 17.27 54.39 44.58 50.03 64.36"/><rect class="cls-2" x="-2.59" y="44.99" width="20.37" height="1.5" transform="translate(-38.73 43.63) rotate(-77.97)"/><path class="cls-2" d="M1.47,78.27,0,78l1.05-4.89,1.47.32Zm2.11-9.78-1.47-.31,1.05-4.89,1.47.31Zm2.11-9.77L4.22,58.4l1-4.89,1.47.32ZM7.8,48.94l-1.47-.31,1-4.89,1.47.32Zm2.11-9.77-1.47-.32L9.49,34l1.47.32ZM12,29.39l-1.47-.31,1-4.89,1.47.32Zm2.11-9.77-1.47-.32,1.05-4.89,1.47.32Z"/><path class="cls-2" d="M28.09,64.05l-1.47-.29,1-4.91,1.47.29ZM30,54.24,28.56,54l1-4.91,1.47.3ZM32,44.43l-1.47-.29,1-4.91,1.47.3Zm1.95-9.81-1.47-.29,1-4.9,1.47.29Zm2-9.81-1.47-.29,1-4.9,1.47.29ZM37.83,15l-1.48-.29,1-4.9,1.47.29Zm1.94-9.8L38.3,4.9l1-4.9,1.48.29Z"/><path class="cls-2" d="M44.88,87.42l-1.46-.33,1.08-4.88,1.47.33Zm2.17-9.76-1.46-.33,1.09-4.88,1.46.33Zm2.18-9.76-1.47-.33,1.09-4.88,1.46.33Zm2.17-9.76-1.47-.33L51,52.93l1.47.32Zm2.17-9.77-1.46-.32,1.08-4.88,1.47.32Zm2.18-9.76-1.47-.32,1.09-4.88,1.46.32Zm2.17-9.76-1.47-.32,1.09-4.88L59,24Z"/><path class="cls-2" d="M20.9,94.63l-1.48-.29,1-4.91,1.47.29Zm1.9-9.82-1.47-.29,1-4.9,1.48.28Z"/><use width="6" height="6" transform="translate(36.4 38.33) rotate(146.52)" xlink:href="#New_Symbol_2"/><use width="6" height="6" transform="translate(9.98 55.8) rotate(146.52)" xlink:href="#New_Symbol_2"/><use width="6" height="6" transform="translate(53.86 64.74) rotate(146.52)" xlink:href="#New_Symbol_2"/><use width="6" height="6" transform="translate(27.45 82.21) rotate(146.52)" xlink:href="#New_Symbol_2"/><use width="6" height="6" transform="translate(40.63 19.23) rotate(146.52)" xlink:href="#New_Symbol_2"/><use width="6" height="6" transform="translate(13.6 36.21) rotate(146.52)" xlink:href="#New_Symbol_2"/><use width="6" height="6" transform="translate(58.04 44.19) rotate(146.52)" xlink:href="#New_Symbol_2"/></g></g></svg>