<svg xmlns="http://www.w3.org/2000/svg" xmlns:xlink="http://www.w3.org/1999/xlink" viewBox="0 0 46.96 79.5"><defs><style>.cls-1{fill:#252a3a;}.cls-2{fill:#263740;}</style><symbol id="New_Symbol_2" data-name="New Symbol 2" viewBox="0 0 6 6"><circle class="cls-1" cx="3" cy="3" r="3"/></symbol></defs><title>Asset 9</title><g id="Layer_2" data-name="Layer 2"><g id="Layer_1-2" data-name="Layer 1"><path class="cls-2" d="M47,45.26,40.58,40.6V28h-1.5V39.5L35.58,37V16h-1.5V35.85l-10.6-7.73-5.9,4.31V10h-1.5V33.5h0l-3.53,2.58V0h-1.5V37.17l-3.5,2.56V23H6.08V40.82L0,45.26,23.08,62.1V76.5h1.5V61.59Zm-2.54,0-3.84,2.8v-5.6Zm-5.34-3.9v7.79l-3.5,2.56V38.81ZM23.48,30l10.6,7.73V52.8l-3.5,2.56V38h-1.5V56.45l-5.6,4.09L2.54,45.26Z"/><use width="6" height="6" transform="translate(26.46 73.48) rotate(89.58)" xlink:href="#New_Symbol_2"/></g></g></svg>