<svg xmlns="http://www.w3.org/2000/svg" xmlns:xlink="http://www.w3.org/1999/xlink" viewBox="0 0 67.83 65.05"><defs><style>.cls-1{fill:#252a3a;}.cls-2{fill:#263740;}</style><symbol id="New_Symbol_2" data-name="New Symbol 2" viewBox="0 0 6 6"><circle class="cls-1" cx="3" cy="3" r="3"/></symbol></defs><title>Asset 11</title><g id="Layer_2" data-name="Layer 2"><g id="Layer_1-2" data-name="Layer 1"><rect class="cls-2" x="57.23" y="22.65" width="1.5" height="5" transform="translate(-0.81 48.36) rotate(-45)"/><path class="cls-2" d="M49.63,43.72V17.87l2.51,2.51,1.06-1.06-3.53-3.54-.83.83L35.71,3.48l-.77.77V3L2.51,3.21l.24,32.73,14.4,14.15,26-.21L29.51,62.8H65.89V28.31ZM47.09,17l-29.29.21L5.29,4.69l29.42-.21-.06.06ZM4,5.55,16.47,18V47.32l-12.22-12ZM18,48.59V18.69l30.16-.22V45.14l-3.4,3.23ZM64.39,61.3H33.27L45.33,49.86h.78v-.73l3.25-3.08h.28v-.26l14.76-14Z"/><rect class="cls-2" x="19.36" y="49.97" width="1.5" height="5" transform="translate(-31.21 29.59) rotate(-45)"/><rect class="cls-2" x="26.43" y="57.04" width="1.5" height="5" transform="translate(-34.14 36.66) rotate(-45)"/><use width="6" height="6" transform="translate(20.19 14.93) rotate(89.58)" xlink:href="#New_Symbol_2"/><use width="6" height="6" transform="translate(34.37 59.03) rotate(89.58)" xlink:href="#New_Symbol_2"/><use width="6" height="6" transform="translate(67.81 58.81) rotate(89.58)" xlink:href="#New_Symbol_2"/><use width="6" height="6" transform="translate(67.81 27.03) rotate(89.58)" xlink:href="#New_Symbol_2"/><use width="6" height="6" transform="translate(20.43 46.59) rotate(89.58)" xlink:href="#New_Symbol_2"/><use width="6" height="6" transform="translate(51.86 14.69) rotate(89.58)" xlink:href="#New_Symbol_2"/><use id="New_Symbol_2-15" data-name="New Symbol 2" width="6" height="6" transform="translate(6.49 0.95) rotate(89.58)" xlink:href="#New_Symbol_2"/><use width="6" height="6" transform="translate(5.98 32.88) rotate(89.58)" xlink:href="#New_Symbol_2"/><use id="New_Symbol_2-20" data-name="New Symbol 2" width="6" height="6" transform="translate(36.91 -0.02) rotate(89.58)" xlink:href="#New_Symbol_2"/></g></g></svg>