<svg xmlns="http://www.w3.org/2000/svg" viewBox="0 0 50.62 63.39"><defs><style>.cls-1{fill:#252a3a;}</style></defs><title>Asset 20</title><g id="Layer_2" data-name="Layer 2"><g id="Layer_1-2" data-name="Layer 1"><rect class="cls-1" x="24.96" y="53.34" width="1.5" height="3.17"/><rect class="cls-1" x="24.96" y="43.34" width="1.5" height="5"/><rect class="cls-1" x="0.61" y="28.89" width="5" height="1.5" transform="translate(-26.53 32.65) rotate(-89.81)"/><rect class="cls-1" x="47.51" y="36.98" width="1.5" height="5"/><rect class="cls-1" x="47.51" y="26.98" width="1.5" height="5"/><path class="cls-1" d="M47.6,43.26a3.34,3.34,0,0,0-1,.18L29.89,31.22,47.51,18.36V22H49V17.27l.18-.13L49,17v0h0L25.71,0,2.23,17.14l.17.13v4.86h1.5V18.36L21.08,30.89,5,42.67a3,3,0,0,0-1.13-.61l0-4.92H2.34l0,4.88A3,3,0,0,0,3,47.93a2.92,2.92,0,0,0,1.87-.69l17.83,13c0,.05,0,.1,0,.15a3,3,0,1,0,6,0,3.1,3.1,0,0,0-.1-.69L45,47.71a3,3,0,1,0,2.6-4.45ZM25.71,1.86,46.64,17.14,25.71,32.42l-3.93-2.87L39,16.28l-.91-1.19L20.52,28.63l-4.05-3,12.16-9.39-.92-1.19-12.5,9.66-4.14-3,5.19-4-.91-1.19L9.81,20.82l-5-3.68Zm0,55.53a3,3,0,0,0-2.48,1.36L5.79,46A3.24,3.24,0,0,0,6,44.91a3.07,3.07,0,0,0-.19-1L22.35,31.82,25,33.73v4.61h1.5V33.73l2.16-1.58L45.33,44.34a3,3,0,0,0-.7,1.78L27.89,58.34A3,3,0,0,0,25.68,57.39Z"/></g></g></svg>