<svg xmlns="http://www.w3.org/2000/svg" xmlns:xlink="http://www.w3.org/1999/xlink" viewBox="0 0 72 39.34"><defs><style>.cls-1{fill:#252a3a;}.cls-2{fill:#333;}</style><symbol id="New_Symbol_2" data-name="New Symbol 2" viewBox="0 0 6 6"><circle class="cls-1" cx="3" cy="3" r="3"/></symbol></defs><title>Asset 21</title><g id="Layer_2" data-name="Layer 2"><g id="Layer_1-2" data-name="Layer 1"><path class="cls-2" d="M20.84,20.3l.83,1.25A9.29,9.29,0,0,1,26,20.15l-.13-1.5A10.71,10.71,0,0,0,20.84,20.3Z"/><path class="cls-2" d="M20.54,34.5a8.87,8.87,0,0,0,5,1.9l.1-1.49a7.54,7.54,0,0,1-4.19-1.58Z"/><rect class="cls-2" x="26.31" y="2.25" width="5" height="1.5"/><rect class="cls-2" x="30.61" y="34.93" width="5" height="1.5"/><rect class="cls-2" x="8.41" y="2.25" width="2.89" height="1.5"/><rect class="cls-2" x="30.95" y="18.59" width="5" height="1.5"/><rect class="cls-2" x="16.31" y="2.25" width="5" height="1.5"/><rect class="cls-2" x="36.31" y="2.25" width="5" height="1.5"/><rect class="cls-2" x="50.63" y="34.93" width="5" height="1.5"/><path class="cls-2" d="M50.61,6.23a9.82,9.82,0,0,0-4.07-3.49L46,4.12a8.34,8.34,0,0,1,3.42,3Z"/><path class="cls-2" d="M43.25,18.59H41v1.5h2.3a9.17,9.17,0,0,0,2.9-.47l-.48-1.42A7.57,7.57,0,0,1,43.25,18.59Z"/><rect class="cls-2" x="40.62" y="34.93" width="5" height="1.5"/><polygon class="cls-2" points="72 35.68 63.05 32.02 64.73 34.93 60.64 34.93 60.64 36.43 64.73 36.43 63.05 39.34 72 35.68"/><use width="6" height="6" transform="translate(5.98 -0.02) rotate(89.58)" xlink:href="#New_Symbol_2"/><use width="6" height="6" transform="translate(53.56 9.36) rotate(89.58)" xlink:href="#New_Symbol_2"/><use width="6" height="6" transform="translate(21.28 24.43) rotate(89.58)" xlink:href="#New_Symbol_2"/></g></g></svg>