<svg xmlns="http://www.w3.org/2000/svg" xmlns:xlink="http://www.w3.org/1999/xlink" viewBox="0 0 55.6 54.83"><defs><style>.cls-1{fill:#252a3a;}.cls-2{fill:#263740;}</style><symbol id="New_Symbol_2" data-name="New Symbol 2" viewBox="0 0 6 6"><circle class="cls-1" cx="3" cy="3" r="3"/></symbol></defs><title>Asset 6</title><g id="Layer_2" data-name="Layer 2"><g id="Layer_1-2" data-name="Layer 1"><rect class="cls-2" x="11.06" y="40.55" width="5" height="1.5" transform="translate(-25.23 21.69) rotate(-45)"/><rect class="cls-2" x="3.99" y="47.62" width="5" height="1.5" transform="translate(-32.3 18.76) rotate(-45)"/><rect class="cls-2" x="48.07" y="4.85" width="2.38" height="1.5" transform="translate(10.46 36.47) rotate(-45)"/><rect class="cls-2" x="40.61" y="11" width="5" height="1.5" transform="translate(4.32 33.93) rotate(-45)"/><rect class="cls-2" x="10.72" y="9.96" width="5" height="1.5" transform="translate(-3.7 12.49) rotate(-45)"/><rect class="cls-2" x="48.53" y="33.93" width="5" height="1.5" transform="translate(-9.57 46.24) rotate(-45)"/><path class="cls-2" d="M38.13,46.52l-2.29,2.29V20.08l2.5-2.5-1.06-1.06L34.5,19.3H5.7l2.75-2.76L7.39,15.48,3.85,19l.28.28H2.34V52.8h33.5V50.93l3.35-3.35ZM19.64,20.8h14.7V35.92H19.64ZM3.84,51.3V20.8h14.3V37.42h16.2V51.3Z"/><rect class="cls-2" x="41.46" y="41" width="5" height="1.5" transform="translate(-16.64 43.31) rotate(-45)"/><use width="6" height="6" transform="translate(37.76 48.81) rotate(89.58)" xlink:href="#New_Symbol_2"/><use width="6" height="6" transform="matrix(0.01, 1.09, -1.1, 0.01, 54.84, -0.02)" xlink:href="#New_Symbol_2"/><use width="6" height="6" transform="translate(23.27 0.62) rotate(89.58)" xlink:href="#New_Symbol_2"/><use width="6" height="6" transform="translate(55.58 30.08) rotate(89.58)" xlink:href="#New_Symbol_2"/><use width="6" height="6" transform="translate(5.98 17.03) rotate(89.58)" xlink:href="#New_Symbol_2"/></g></g></svg>