<svg xmlns="http://www.w3.org/2000/svg" xmlns:xlink="http://www.w3.org/1999/xlink" viewBox="0 0 52.29 41.23"><defs><style>.cls-1{fill:#252a3a;}.cls-2{fill:#263740;}</style><symbol id="New_Symbol_2" data-name="New Symbol 2" viewBox="0 0 6 6"><circle class="cls-1" cx="3" cy="3" r="3"/></symbol></defs><title>Asset 19</title><g id="Layer_2" data-name="Layer 2"><g id="Layer_1-2" data-name="Layer 1"><path class="cls-2" d="M50.56,20.92,38.41,12.06,41.85,9.5,41,8.3l-3.8,2.83L27.08,3.78,16.8,11.29l-2.58-2-.91,1.18,2.22,1.73L3.6,20.92l10.81,7.89-3.56,2.65.89,1.2,3.93-2.93,11.41,8.33,11.23-8.2,3.24,2.51.92-1.19-2.9-2.24Zm-44.42,0L27.08,5.64,48,20.92,27.08,36.2Z"/><rect class="cls-2" x="7.09" y="2.8" width="1.5" height="5" transform="translate(-1.15 8.25) rotate(-52.23)"/><rect class="cls-2" x="47.19" y="33.87" width="1.5" height="5" transform="translate(-10.18 51.98) rotate(-52.22)"/><rect class="cls-2" x="45.1" y="4.23" width="3.12" height="1.5" transform="translate(6.25 28.83) rotate(-36.63)"/><rect class="cls-2" x="2.78" y="35.78" width="5" height="1.5" transform="translate(-20.76 10.36) rotate(-36.63)"/><use width="6" height="6" transform="translate(51.4 0.65) rotate(89.58)" xlink:href="#New_Symbol_2"/><use width="6" height="6" transform="translate(5.98 35.21) rotate(89.58)" xlink:href="#New_Symbol_2"/><use width="6" height="6" transform="translate(52.27 34.39) rotate(89.58)" xlink:href="#New_Symbol_2"/><use width="6" height="6" transform="translate(7.85 -0.02) rotate(89.58)" xlink:href="#New_Symbol_2"/></g></g></svg>