<svg xmlns="http://www.w3.org/2000/svg" viewBox="0 0 51.45 63.27"><defs><style>.cls-1,.cls-2{stroke:#333;stroke-miterlimit:10;}.cls-2{fill:none;}</style></defs><title>Asset 5</title><g id="Layer_2" data-name="Layer 2"><g id="Layer_1-2" data-name="Layer 1"><circle class="cls-1" cx="3.5" cy="44.05" r="3"/><circle class="cls-1" cx="25.2" cy="59.77" r="3"/><circle class="cls-1" cx="47.95" cy="44.05" r="3"/><polygon class="cls-2" points="25.2 59.92 3 43.71 25.2 27.5 47.41 43.71 25.2 59.92"/><circle class="cls-1" cx="3.5" cy="31.55" r="3"/><circle class="cls-1" cx="25.2" cy="47.27" r="3"/><circle class="cls-1" cx="47.95" cy="31.55" r="3"/><polygon class="cls-2" points="25.2 47.42 3 31.21 25.2 15 47.41 31.21 25.2 47.42"/><circle class="cls-1" cx="3.5" cy="20.05" r="3"/><circle class="cls-1" cx="25.2" cy="35.77" r="3"/><circle class="cls-1" cx="47.95" cy="20.05" r="3"/><circle class="cls-1" cx="25.2" cy="3.5" r="3"/><polygon class="cls-2" points="25.2 35.92 3 19.71 25.2 3.5 47.41 19.71 25.2 35.92"/></g></g></svg>