<svg xmlns="http://www.w3.org/2000/svg" xmlns:xlink="http://www.w3.org/1999/xlink" viewBox="0 0 78.91 46.9"><defs><style>.cls-1{fill:#252a3a;}.cls-2{fill:#263740;}</style><symbol id="New_Symbol_2" data-name="New Symbol 2" viewBox="0 0 6 6"><circle class="cls-1" cx="3" cy="3" r="3"/></symbol></defs><title>Asset 13</title><g id="Layer_2" data-name="Layer 2"><g id="Layer_1-2" data-name="Layer 1"><path class="cls-2" d="M3,20.59l.78,1.28a22.46,22.46,0,0,1,4.41-1.95L7.7,18.5A24.05,24.05,0,0,0,3,20.59Z"/><path class="cls-2" d="M8.56,31.09c1.47.46,3.12.89,4.91,1.27l.31-1.46C12,30.52,10.43,30.11,9,29.66Z"/><path class="cls-2" d="M63.19,16.51c-1.57-.29-3.25-.55-5-.78L58,17.21c1.71.23,3.36.49,4.9.78Z"/><path class="cls-2" d="M18.43,33.27c1.59.25,3.27.47,5,.66l.17-1.49c-1.71-.19-3.36-.41-4.93-.65Z"/><path class="cls-2" d="M17.79,17.67l-.24-1.49c-1.75.29-3.42.62-5,1l.34,1.46C14.43,18.27,16.07,18,17.79,17.67Z"/><path class="cls-2" d="M1.47,25,0,25.24c.27,1.43,1.55,2.75,3.8,4l.7-1.33C2.7,26.91,1.65,25.9,1.47,25Z"/><path class="cls-2" d="M68.06,30.18l.39,1.45A40.67,40.67,0,0,0,73.28,30l-.57-1.39A38.26,38.26,0,0,1,68.06,30.18Z"/><path class="cls-2" d="M73,19.17a40.84,40.84,0,0,0-4.85-1.57l-.38,1.46a38,38,0,0,1,4.67,1.5Z"/><path class="cls-2" d="M77.5,21.82l-1,1.09a2.52,2.52,0,0,1,.94,1.75,2.35,2.35,0,0,1-.74,1.55l1.1,1a3.75,3.75,0,0,0,1.14-2.57A3.93,3.93,0,0,0,77.5,21.82Z"/><path class="cls-2" d="M58.33,32.06l.21,1.49c1.73-.24,3.41-.51,5-.81l-.28-1.47C61.69,31.56,60,31.83,58.33,32.06Z"/><path class="cls-2" d="M53.42,32.89l9.44-9.44L39.41,0,16,23.45,39.41,46.9,52.07,34.24l1.47-.12Zm-14,11.89L29,34.41c1.45.1,2.93.18,4.41.24l.06-1.5c-1.67-.07-3.34-.15-5-.27l-.07,1L18.08,23.45,39.41,2.12,60.74,23.45,51.4,32.8l-3,.2.08,1.5,1.26-.09Z"/><path class="cls-2" d="M39.43,33.26h-.94v1.5h1c1.36,0,2.7,0,4,0l0-1.5C42.14,33.24,40.79,33.26,39.43,33.26Z"/><use width="6" height="6" transform="translate(43.24 24.3) rotate(146.52)" xlink:href="#New_Symbol_2"/></g></g></svg>