<svg xmlns="http://www.w3.org/2000/svg" xmlns:xlink="http://www.w3.org/1999/xlink" viewBox="0 0 70.75 42.03"><defs><style>.cls-1{fill:#252a3a;}.cls-2{fill:#333;}</style><symbol id="New_Symbol_2" data-name="New Symbol 2" viewBox="0 0 6 6"><circle class="cls-1" cx="3" cy="3" r="3"/></symbol></defs><title>Asset 4</title><g id="Layer_2" data-name="Layer 2"><g id="Layer_1-2" data-name="Layer 1"><path class="cls-2" d="M22.37,37.55l-.71.7a5.13,5.13,0,0,0,3.68,1.69h1.23v-1H25.34A4.17,4.17,0,0,1,22.37,37.55Z"/><rect class="cls-2" x="32.54" y="2.5" width="5" height="1"/><rect class="cls-2" x="30.14" y="20.72" width="5" height="1"/><rect class="cls-2" x="31.57" y="38.94" width="5" height="1"/><rect class="cls-2" x="12.54" y="2.5" width="5" height="1"/><rect class="cls-2" x="3.25" y="2.5" width="4.29" height="1"/><path class="cls-2" d="M25.17,21.73l-.06-1A5.78,5.78,0,0,0,20.7,23.6l.84.56A4.81,4.81,0,0,1,25.17,21.73Z"/><path class="cls-2" d="M20,28.62l-1-.13a14.21,14.21,0,0,0,.27,5.15l1-.24a13,13,0,0,1-.36-3.07A12.18,12.18,0,0,1,20,28.62Z"/><rect class="cls-2" x="22.54" y="2.5" width="5" height="1"/><path class="cls-2" d="M52.63,2.57l-.18,1A5.3,5.3,0,0,1,55.9,6.32l.86-.5A6.22,6.22,0,0,0,52.63,2.57Z"/><rect class="cls-2" x="51.57" y="38.94" width="5" height="1"/><path class="cls-2" d="M57.29,10.86c0,.41.06.83.06,1.25a12.67,12.67,0,0,1-.49,3.51l1,.28a13.5,13.5,0,0,0,.53-3.79,11.66,11.66,0,0,0-.07-1.34Z"/><path class="cls-2" d="M55.16,20.39l-.66-.75a4,4,0,0,1-2.65,1.08H50.14v1h1.71A5,5,0,0,0,55.16,20.39Z"/><rect class="cls-2" x="40.14" y="20.72" width="5" height="1"/><rect class="cls-2" x="41.57" y="38.94" width="5" height="1"/><rect class="cls-2" x="42.54" y="2.5" width="5" height="1"/><polygon class="cls-2" points="70.75 39.44 64.61 36.85 65.49 38.94 61.57 38.94 61.57 39.94 65.49 39.94 64.61 42.03 70.75 39.44"/><use width="6" height="6" transform="translate(5.98 -0.02) rotate(89.58)" xlink:href="#New_Symbol_2"/><use width="6" height="6" transform="translate(61.47 9.17) rotate(89.58)" xlink:href="#New_Symbol_2"/><use width="6" height="6" transform="translate(22.98 26.23) rotate(89.58)" xlink:href="#New_Symbol_2"/></g></g></svg>