<svg xmlns="http://www.w3.org/2000/svg" xmlns:xlink="http://www.w3.org/1999/xlink" viewBox="0 0 50.42 62.87"><defs><style>.cls-1{fill:#252a3a;}.cls-2{fill:#263740;}</style><symbol id="New_Symbol_2" data-name="New Symbol 2" viewBox="0 0 6 6"><circle class="cls-1" cx="3" cy="3" r="3"/></symbol></defs><title>Asset 10</title><g id="Layer_2" data-name="Layer 2"><g id="Layer_1-2" data-name="Layer 1"><path class="cls-2" d="M40.46,25.21l8.23-6L25.21,2.07,1.73,19.21l8.22,6-8.22,6,8.53,6.22L1.73,43.67,25.21,60.8,48.69,43.67l-8.53-6.23,8.53-6.22Zm-36.19-6L25.21,3.93,46.14,19.21l-7,5.07-14-10.2-14,10.2ZM25.21,34.49,21,31.44l4.18-3.05,4.18,3.05Zm5.45-2.12,7,5.07-12.4,9.05L12.8,37.44l7-5.07,5.45,4Zm-5.45-5.84-5.45,4-7.26-5.3,12.71-9.27,12.71,9.27-7.26,5.3ZM4.27,31.22l7-5.08,7.25,5.3-7,5.07ZM46.14,43.67,25.21,58.94,4.27,43.67l7.26-5.3,13.68,10,13.68-10ZM31.93,31.44l7.26-5.3,7,5.08-7.25,5.29Z"/><use width="6" height="6" transform="translate(28.38 43.94) rotate(89.58)" xlink:href="#New_Symbol_2"/><use width="6" height="6" transform="translate(28.38 32.02) rotate(89.58)" xlink:href="#New_Symbol_2"/><use width="6" height="6" transform="translate(5.98 28.19) rotate(89.58)" xlink:href="#New_Symbol_2"/><use width="6" height="6" transform="translate(5.98 16.19) rotate(89.58)" xlink:href="#New_Symbol_2"/><use width="6" height="6" transform="translate(28.19 -0.02) rotate(89.58)" xlink:href="#New_Symbol_2"/><use width="6" height="6" transform="translate(50.39 16.19) rotate(89.58)" xlink:href="#New_Symbol_2"/><use width="6" height="6" transform="translate(50.39 28.19) rotate(89.58)" xlink:href="#New_Symbol_2"/><use width="6" height="6" transform="translate(50.39 41.2) rotate(89.58)" xlink:href="#New_Symbol_2"/><use width="6" height="6" transform="translate(5.98 40.64) rotate(89.58)" xlink:href="#New_Symbol_2"/><use width="6" height="6" transform="translate(28.38 56.85) rotate(89.58)" xlink:href="#New_Symbol_2"/></g></g></svg>