<svg xmlns="http://www.w3.org/2000/svg" xmlns:xlink="http://www.w3.org/1999/xlink" viewBox="0 0 62.7 67.88"><defs><style>.cls-1{fill:#252a3a;}.cls-2{fill:#263740;}</style><symbol id="New_Symbol_2" data-name="New Symbol 2" viewBox="0 0 6 6"><circle class="cls-1" cx="3" cy="3" r="3"/></symbol></defs><title>Asset 15</title><g id="Layer_2" data-name="Layer 2"><g id="Layer_1-2" data-name="Layer 1"><use width="6" height="6" transform="translate(34.82 61.86) rotate(89.58)" xlink:href="#New_Symbol_2"/><use width="6" height="6" transform="translate(34.33 32.51) rotate(89.58)" xlink:href="#New_Symbol_2"/><rect class="cls-2" x="29.3" y="55.49" width="5" height="1.5" transform="translate(-25.01 87.01) rotate(-88.96)"/><rect class="cls-2" x="31.08" y="63.56" width="1.15" height="1.5" transform="translate(-33.2 94.83) rotate(-88.99)"/><path class="cls-2" d="M62,35l-8-.19L32.22,18.94V6.8L34.8,7.9,31.47,0,28.14,7.9l2.58-1.1V18.94L9,34.78.77,34.59a.75.75,0,1,0,0,1.5l8.29.2L31.47,52.67,53.89,36.3l8,.19h0A.75.75,0,0,0,62,35ZM31.47,50.81,10.53,35.53,30.72,20.8V33.87h1.5V20.8L52.4,35.53Z"/></g></g></svg>