<svg xmlns="http://www.w3.org/2000/svg" xmlns:xlink="http://www.w3.org/1999/xlink" viewBox="0 0 53.98 53.89"><defs><style>.cls-1{fill:#252a3a;}.cls-2{fill:#263740;}</style><symbol id="New_Symbol_2" data-name="New Symbol 2" viewBox="0 0 6 6"><circle class="cls-1" cx="3" cy="3" r="3"/></symbol></defs><title>Asset 2</title><g id="Layer_2" data-name="Layer 2"><g id="Layer_1-2" data-name="Layer 1"><path class="cls-2" d="M35.84,35.75H2.34V2.25h33.5Zm-32-1.5h30.5V3.75H3.84Z"/><rect class="cls-2" x="18.53" y="22.11" width="1.5" height="5"/><rect class="cls-2" x="20.28" y="50.36" width="5" height="1.5"/><rect class="cls-2" x="18.53" y="32.11" width="1.5" height="5"/><rect class="cls-2" x="19.28" y="18.36" width="5" height="1.5"/><rect class="cls-2" x="18.53" y="42.11" width="1.5" height="5"/><rect class="cls-2" x="29.28" y="18.36" width="5" height="1.5"/><polygon class="cls-2" points="50.53 50.36 50.28 50.36 50.28 51.86 52.03 51.86 52.03 47.11 50.53 47.11 50.53 50.36"/><rect class="cls-2" x="50.53" y="37.11" width="1.5" height="5"/><rect class="cls-2" x="30.28" y="50.36" width="5" height="1.5"/><polygon class="cls-2" points="49.28 18.36 49.28 19.86 50.53 19.86 50.53 22.11 52.03 22.11 52.03 18.36 49.28 18.36"/><rect class="cls-2" x="50.53" y="27.11" width="1.5" height="5"/><rect class="cls-2" x="39.28" y="18.36" width="5" height="1.5"/><rect class="cls-2" x="40.28" y="50.36" width="5" height="1.5"/><use width="6" height="6" transform="translate(6.33 31.41) rotate(89.58)" xlink:href="#New_Symbol_2"/><use width="6" height="6" transform="translate(37.76 31.76) rotate(89.58)" xlink:href="#New_Symbol_2"/><use width="6" height="6" transform="translate(37.76 -0.02) rotate(89.58)" xlink:href="#New_Symbol_2"/><use width="6" height="6" transform="translate(5.98 -0.02) rotate(89.58)" xlink:href="#New_Symbol_2"/><use width="6" height="6" transform="translate(22.52 47.52) rotate(89.58)" xlink:href="#New_Symbol_2"/><use width="6" height="6" transform="translate(53.96 47.87) rotate(89.58)" xlink:href="#New_Symbol_2"/><use width="6" height="6" transform="translate(53.96 16.09) rotate(89.58)" xlink:href="#New_Symbol_2"/><use width="6" height="6" transform="translate(22.17 16.09) rotate(89.58)" xlink:href="#New_Symbol_2"/></g></g></svg>