<svg xmlns="http://www.w3.org/2000/svg" xmlns:xlink="http://www.w3.org/1999/xlink" viewBox="0 0 76.22 76.03"><defs><style>.cls-1{fill:#252a3a;}.cls-2{fill:none;stroke:#333;stroke-miterlimit:10;}</style><symbol id="New_Symbol_2" data-name="New Symbol 2" viewBox="0 0 6 6"><circle class="cls-1" cx="3" cy="3" r="3"/></symbol></defs><title>Asset 3</title><g id="Layer_2" data-name="Layer 2"><g id="Layer_1-2" data-name="Layer 1"><path class="cls-2" d="M69.81,33v-1h-1L55.71,17.84v-.26l-5,0v1l4.33,0L68.16,32.64H38.91L25.57,19.3l-.71.71L37.38,32.53V62.81L23.2,48.63l-.71.71,1.19,1.19h-.39l0,5h1l0-4.38,12.79,12.8.29-.29v.43H69.81V33.64h.65Zm-1,30.13H38.38V33.53l.11.11H68.81Z"/><rect class="cls-2" x="20.71" y="17.82" width="5" height="1" transform="translate(-0.14 0.18) rotate(-0.45)"/><rect class="cls-2" x="30.71" y="17.74" width="5" height="1" transform="translate(-0.14 0.26) rotate(-0.45)"/><rect class="cls-2" x="0.71" y="17.96" width="5" height="1" transform="translate(-0.14 0.03) rotate(-0.45)"/><rect class="cls-2" x="40.71" y="17.67" width="5" height="1" transform="translate(-0.14 0.34) rotate(-0.45)"/><rect class="cls-2" x="60.71" y="17.52" width="5" height="1" transform="translate(-0.14 0.49) rotate(-0.45)"/><rect class="cls-2" x="10.71" y="17.89" width="5" height="1" transform="translate(-0.14 0.1) rotate(-0.45)"/><rect class="cls-2" x="70.71" y="17.45" width="5" height="1" transform="translate(-0.13 0.54) rotate(-0.43)"/><rect class="cls-2" x="17.84" y="50.44" width="5" height="1" transform="translate(-0.4 0.16) rotate(-0.45)"/><rect class="cls-2" x="7.84" y="50.52" width="5" height="1" transform="translate(-0.4 0.08) rotate(-0.45)"/><rect class="cls-2" x="0.51" y="50.58" width="2.34" height="1" transform="translate(-0.4 0.01) rotate(-0.45)"/><rect class="cls-2" x="23.02" y="10.53" width="1" height="5" transform="translate(-0.1 0.18) rotate(-0.45)"/><rect class="cls-2" x="23.38" y="60.53" width="1" height="5" transform="translate(-0.49 0.19) rotate(-0.45)"/><rect class="cls-2" x="23.46" y="70.53" width="1" height="5" transform="translate(-0.54 0.18) rotate(-0.43)"/><rect class="cls-2" x="22.94" y="0.53" width="1" height="5" transform="translate(-0.02 0.17) rotate(-0.43)"/><rect class="cls-2" x="23.16" y="30.53" width="1" height="5" transform="translate(-0.24 0.18) rotate(-0.43)"/><rect class="cls-2" x="23.24" y="40.53" width="1" height="5" transform="translate(-0.32 0.18) rotate(-0.43)"/><rect class="cls-2" x="23.09" y="20.53" width="1" height="5" transform="translate(-0.17 0.17) rotate(-0.41)"/><rect class="cls-2" x="55.97" y="0.51" width="1" height="5" transform="translate(-0.02 0.41) rotate(-0.41)"/><rect class="cls-2" x="56.04" y="10.51" width="1" height="5" transform="translate(-0.1 0.44) rotate(-0.45)"/><use width="6" height="6" transform="translate(26.4 47.03) rotate(89.58)" xlink:href="#New_Symbol_2"/><use width="6" height="6" transform="translate(40.86 60.56) rotate(89.58)" xlink:href="#New_Symbol_2"/><use width="6" height="6" transform="translate(40.86 30.12) rotate(89.58)" xlink:href="#New_Symbol_2"/><use width="6" height="6" transform="translate(71.87 30.12) rotate(89.58)" xlink:href="#New_Symbol_2"/><use width="6" height="6" transform="translate(72.29 60.56) rotate(89.58)" xlink:href="#New_Symbol_2"/><use width="6" height="6" transform="translate(26.36 15.47) rotate(89.58)" xlink:href="#New_Symbol_2"/><use width="6" height="6" transform="translate(59.57 15.47) rotate(89.58)" xlink:href="#New_Symbol_2"/></g></g></svg>