<svg xmlns="http://www.w3.org/2000/svg" xmlns:xlink="http://www.w3.org/1999/xlink" viewBox="0 0 55.98 54.94"><defs><style>.cls-1{fill:#252a3a;}.cls-2{fill:#263740;}</style><symbol id="New_Symbol_2" data-name="New Symbol 2" viewBox="0 0 6 6"><circle class="cls-1" cx="3" cy="3" r="3"/></symbol></defs><title>Asset 1</title><g id="Layer_2" data-name="Layer 2"><g id="Layer_1-2" data-name="Layer 1"><path class="cls-2" d="M41.38,23.28l3.71-2.71L34.24,12.64l5.34-3.9L27.62,0l-12,8.74L21,12.64,10.14,20.57l3.71,2.71L.47,33.05,27.62,52.87,54.76,33.05ZM18.19,8.74l9.43-6.88L37,8.74l-4.07,3h0l-.21.15-.23.17h0l-3.72,2.72-1.19.87-1.19-.87L22.71,12h0l-.2-.14-.24-.18h0Zm4.08,4.83L25.55,16l2.07,1.52L29.69,16,33,13.57l9.58,7L27.62,31.47,12.68,20.57ZM3,33.05l12.12-8.84,12.49,9.12,12.49-9.12,12.11,8.84L27.62,51Z"/><use width="6" height="6" transform="translate(5.98 29.94) rotate(89.58)" xlink:href="#New_Symbol_2"/><use width="6" height="6" transform="translate(55.96 30.36) rotate(89.58)" xlink:href="#New_Symbol_2"/><use width="6" height="6" transform="translate(30.59 48.92) rotate(89.58)" xlink:href="#New_Symbol_2"/></g></g></svg>